<svg width="8" height="11" viewBox="0 0 8 11" fill="none" xmlns="http://www.w3.org/2000/svg">
<path d="M7.1875 6.18945L2.67188 10.7051C2.51693 10.86 2.32878 10.9375 2.10742 10.9375C1.88607 10.9375 1.69792 10.86 1.54297 10.7051L0.8125 9.94141C0.657552 9.78646 0.580078 9.59831 0.580078 9.37695C0.580078 9.1556 0.657552 8.96745 0.8125 8.8125L4 5.625L0.8125 2.4375C0.657552 2.28255 0.580078 2.0944 0.580078 1.87305C0.580078 1.65169 0.657552 1.46354 0.8125 1.30859L1.54297 0.544922C1.69792 0.389974 1.88607 0.3125 2.10742 0.3125C2.32878 0.3125 2.51693 0.389974 2.67188 0.544922L7.1875 5.06055C7.34245 5.21549 7.41992 5.40365 7.41992 5.625C7.41992 5.84635 7.34245 6.03451 7.1875 6.18945Z" fill="#888888"/>
</svg>
